<svg xmlns="http://www.w3.org/2000/svg" viewBox="0 0 298 345.1">
    <path d="M264.6 102.1l5.4-5.4c7.7-7.7 9.1-18.9 3.1-24.9s-17.2-4.6-24.9 3.1l-5.4 5.4c-21-17-46.6-28.4-74.7-32v-9.6h7.7c10.9 0 19.8-8.7 19.8-19.4S186.6 0 175.7 0h-53.3c-10.9 0-19.8 8.7-19.8 19.4s8.9 19.4 19.8 19.4h7.7v9.6C56.7 57.6 0 120.2 0 196.1c0 82.3 66.7 149 149 149s149-66.7 149-149c0-35.7-12.5-68.4-33.4-94zM149 306.3c-60.8 0-110.2-49.3-110.2-110.2 0-60.8 49.3-110.2 110.2-110.2 60.8 0 110.2 49.3 110.2 110.2 0 60.8-49.4 110.2-110.2 110.2z" fill="#dedede"/>
    <path d="M149 69.6c-69.9 0-126.5 56.6-126.5 126.5S79.1 322.6 149 322.6 275.5 266 275.5 196.1 218.9 69.6 149 69.6zm0 237.2c-60.8 0-110.2-49.3-110.2-110.2 0-60.8 49.3-110.2 110.2-110.2 60.8 0 110.2 49.3 110.2 110.2 0 60.9-49.4 110.2-110.2 110.2z" fill="#d22856"/>
</svg>
