<svg xmlns="http://www.w3.org/2000/svg" width="27" height="34" viewBox="0 0 154.4 195.3">
    <path d="M78 .6l-.8-.1-76.7 8v140.6l76.7 45.6 76.7-45.6V8.5L78 .6zm65.9 142.8l-66.7 39.7-66.7-39.7V85.8l66.4 39.5.1 7.2-45.5-27.1-.1 7 45.7 27.5.1 7.3L31.5 120l-.1 7 45.7 27.5 46.2-27.6v-7h-.1V97.1l20.6-12.3v58.6zm-.1-66.1L125.6 88l-8.4 5L77 69.2l-.1 7 34.3 20.4-.3.2-.7.4-4.9 2.9L77 83.2l-.1 7 22.4 13.3L94 107l-.1.1-16.9-10-.1 7 11.1 6.5-11.3 6.8-66-39.3 66.1-39.8v0l67 39zm.1-6.9l-67-39.5v0h0v0L10.5 70.3V17.6l66.7-7 66.7 7v52.8z" fill="#d22856" stroke="#231f20" stroke-miterlimit="10"/>
</svg>
