<?xml version="1.0" encoding="utf-8"?>
<!-- Generator: Adobe Illustrator 23.0.1, SVG Export Plug-In . SVG Version: 6.00 Build 0)  -->
<svg version="1.1" id="Layer_1" xmlns="http://www.w3.org/2000/svg" xmlns:xlink="http://www.w3.org/1999/xlink" x="0px" y="0px"
	 viewBox="-8 -7.3 31.9 31.9" style="enable-background:new -8 -7.3 31.9 31.9;" xml:space="preserve">
<!-- <style type="text/css">
	.st0{fill:#231F20;}
</style> -->
<g>
	<path class="st0" d="M8-3.3c6.6,0,12,5.4,12,12s-5.4,12-12,12s-12-5.4-12-12S1.4-3.3,8-3.3 M8-7.3c-8.8,0-16,7.1-16,16
		c0,8.8,7.1,16,16,16c8.8,0,16-7.1,16-16C24-0.2,16.8-7.3,8-7.3L8-7.3z"/>
</g>
<path d="M8,17c4.7,0,8.5-3.8,8.5-8.5C16.5,3.8,12.7,0,8,0"/>
</svg>
